<svg width="657.9px" height="122px" xmlns="http://www.w3.org/2000/svg" viewBox="-78.94687499999998 14 657.89375 122" style="background: rgba(0, 0, 0, 0)" preserveAspectRatio="xMidYMid"><defs><filter id="editing-extrusion" x="-100%" y="-100%" width="300%" height="300%"><feFlood result="color1" flood-color="#444444"></feFlood><feConvolveMatrix order="3,3" divisor="1" kernelMatrix="1 0 0 0 1 0 0 0 1" in="SourceAlpha" result="extrude"></feConvolveMatrix><feComposite in="color1" in2="extrude" result="comp-extrude" operator="in"></feComposite><feOffset dx="1.5" dy="1.5" in="comp-extrude" result="offset-extrude"></feOffset><feMerge><feMergeNode in="offset-extrude"></feMergeNode><feMergeNode in="SourceGraphic"></feMergeNode></feMerge></filter></defs><g filter="url(#editing-extrusion)"><g transform="matrix(1.1,0,0,1.1,-11,118.2)"><path d="M -23.3 -25.5 L -37.2 -25.5 L -29.1 -67.7 L -15 -67.7 L -23.3 -25.5 Z M 32.5 -24.2 L 32.5 -24.2 L 32.5 -24.2 Q 24.7 -24.2 24.7 -30.2 L 24.7 -30.2 L 24.7 -30.2 Q 24.7 -32.9 25.8 -38 L 25.8 -38 L 25.8 -38 Q 27 -43 27.3 -45.1 L 27.3 -45.1 L 27.3 -45.1 Q 28.2 -49.8 28.2 -51.2 L 28.2 -51.2 L 28.2 -51.2 Q 28.2 -54.5 25.8 -54.5 L 25.8 -54.5 L 25.8 -54.5 Q 24.2 -54.5 22.7 -52.3 L 22.7 -52.3 L 22.7 -52.3 Q 21.1 -50.1 20.4 -45.7 L 20.4 -45.7 L 16.5 -25.5 L 4 -24.2 L 7.4 -41.6 L 7.4 -41.6 Q 8 -44.5 8.5 -47.8 L 8.5 -47.8 L 8.5 -47.8 Q 9 -51 9 -51.6 L 9 -51.6 L 9 -51.6 Q 9 -54.5 6.9 -54.5 L 6.9 -54.5 L 6.9 -54.5 Q 5.4 -54.5 3.8 -52.3 L 3.8 -52.3 L 3.8 -52.3 Q 2.2 -50.1 1.3 -45.7 L 1.3 -45.7 L -2.6 -25.5 L -15.2 -24.2 L -8.5 -58.1 L 1.9 -59.4 L 0.8 -53 L 0.8 -53 Q 2.5 -56.4 5.6 -57.9 L 5.6 -57.9 L 5.6 -57.9 Q 8.6 -59.4 13.4 -59.4 L 13.4 -59.4 L 13.4 -59.4 Q 16.2 -59.4 18 -58.1 L 18 -58.1 L 18 -58.1 Q 19.8 -56.7 20.4 -54.6 L 20.4 -54.6 L 20.4 -54.6 Q 21.4 -56.8 24.2 -58.1 L 24.2 -58.1 L 24.2 -58.1 Q 27 -59.4 30.4 -59.4 L 30.4 -59.4 L 30.4 -59.4 Q 33.9 -59.4 35.6 -58.7 L 35.6 -58.7 L 35.6 -58.7 Q 37.3 -58 38.3 -56.7 L 38.3 -56.7 L 38.3 -56.7 Q 40 -54.5 40 -50.4 L 40 -50.4 L 40 -50.4 Q 40 -46.4 38.3 -38 L 38.3 -38 L 38.3 -38 Q 37.4 -33.9 37.4 -32.4 L 37.4 -32.4 L 37.4 -32.4 Q 37.4 -30.9 38.2 -30 L 38.2 -30 L 38.2 -30 Q 39.1 -29.1 40.4 -29 L 40.4 -29 L 40.4 -29 Q 39.8 -26.8 37.5 -25.5 L 37.5 -25.5 L 37.5 -25.5 Q 35.3 -24.2 32.5 -24.2 Z M 48.1 -27.4 L 48.1 -27.4 L 48.1 -27.4 Q 46.6 -29.1 45.9 -31.7 L 45.9 -31.7 L 45.9 -31.7 Q 45.3 -34.3 45.3 -38.6 L 45.3 -38.6 L 45.3 -38.6 Q 45.3 -42.9 46.7 -46.8 L 46.7 -46.8 L 46.7 -46.8 Q 48.2 -50.7 50.9 -53.5 L 50.9 -53.5 L 50.9 -53.5 Q 56.4 -59.4 65.5 -59.4 L 65.5 -59.4 L 65.5 -59.4 Q 68.7 -59.4 71.1 -58.3 L 71.1 -58.3 L 82.1 -59.4 L 77.3 -34.5 L 77.3 -34.5 Q 77.1 -33.7 77.1 -32.3 L 77.1 -32.3 L 77.1 -32.3 Q 77.1 -30.9 78 -30 L 78 -30 L 78 -30 Q 78.9 -29.1 80.1 -29 L 80.1 -29 L 80.1 -29 Q 79.5 -26.8 77.2 -25.5 L 77.2 -25.5 L 77.2 -25.5 Q 74.8 -24.2 72.2 -24.2 L 72.2 -24.2 L 72.2 -24.2 Q 69.6 -24.2 67.8 -25.2 L 67.8 -25.2 L 67.8 -25.2 Q 66.1 -26.2 65.5 -27.9 L 65.5 -27.9 L 65.5 -27.9 Q 64.5 -26.3 62.3 -25.2 L 62.3 -25.2 L 62.3 -25.2 Q 60.2 -24.2 57.3 -24.2 L 57.3 -24.2 L 57.3 -24.2 Q 54.3 -24.2 52 -25 L 52 -25 L 52 -25 Q 49.6 -25.8 48.1 -27.4 Z M 61.6 -53.4 L 61.6 -53.4 L 61.6 -53.4 Q 60.9 -52.3 60.2 -50.3 L 60.2 -50.3 L 60.2 -50.3 Q 59.6 -48.4 58.5 -43.1 L 58.5 -43.1 L 58.5 -43.1 Q 57.5 -37.9 57.5 -34.2 L 57.5 -34.2 L 57.5 -34.2 Q 57.5 -30.5 58.1 -29.4 L 58.1 -29.4 L 58.1 -29.4 Q 58.6 -28.3 59.7 -28.3 L 59.7 -28.3 L 59.7 -28.3 Q 61.7 -28.3 63.2 -30.3 L 63.2 -30.3 L 63.2 -30.3 Q 64.7 -32.2 65.3 -35.7 L 65.3 -35.7 L 68.7 -54.4 L 68.7 -54.4 Q 67.3 -55.6 65.8 -55.6 L 65.8 -55.6 L 65.8 -55.6 Q 64.2 -55.6 63.3 -55.1 L 63.3 -55.1 L 63.3 -55.1 Q 62.3 -54.6 61.6 -53.4 Z M 89.8 -52.3 L 89.8 -52.3 L 89.8 -52.3 Q 92 -55.3 95.3 -57.4 L 95.3 -57.4 L 95.3 -57.4 Q 98.6 -59.4 102.6 -59.4 L 102.6 -59.4 L 102.6 -59.4 Q 106.6 -59.4 108.6 -58.1 L 108.6 -58.1 L 121.1 -59.4 L 116.7 -34.8 L 116.7 -34.8 Q 114.5 -22.3 109.8 -17.4 L 109.8 -17.4 L 109.8 -17.4 Q 105.2 -12.7 96.4 -12.7 L 96.4 -12.7 L 96.4 -12.7 Q 89.7 -12.7 85.8 -14.8 L 85.8 -14.8 L 85.8 -14.8 Q 82 -16.9 82 -20.4 L 82 -20.4 L 82 -20.4 Q 82 -23.1 84 -24.6 L 84 -24.6 L 84 -24.6 Q 86 -26.1 89 -26.1 L 89 -26.1 L 89 -26.1 Q 91.7 -26.1 93.8 -24.9 L 93.8 -24.9 L 93.8 -24.9 Q 95 -24.2 95.6 -23.3 L 95.6 -23.3 L 95.6 -23.3 Q 94.1 -22 94.1 -19.9 L 94.1 -19.9 L 94.1 -19.9 Q 94.1 -17.2 96.6 -17.2 L 96.6 -17.2 L 96.6 -17.2 Q 100.9 -17.2 103.4 -27.3 L 103.4 -27.3 L 103.4 -27.3 Q 104.1 -30 104.6 -32.8 L 104.6 -32.8 L 104.6 -32.8 Q 101.8 -29.3 95.2 -29.3 L 95.2 -29.3 L 95.2 -29.3 Q 90.7 -29.3 88.1 -31.5 L 88.1 -31.5 L 88.1 -31.5 Q 85.4 -33.6 85.4 -38.8 L 85.4 -38.8 L 85.4 -38.8 Q 85.4 -42 86.5 -45.6 L 86.5 -45.6 L 86.5 -45.6 Q 87.6 -49.2 89.8 -52.3 Z M 98.1 -38.6 L 98.1 -38.6 L 98.1 -38.6 Q 98.1 -34.2 100.4 -34.2 L 100.4 -34.2 L 100.4 -34.2 Q 101.9 -34.2 103.4 -35.9 L 103.4 -35.9 L 103.4 -35.9 Q 104.5 -37.2 105 -39.2 L 105 -39.2 L 108.2 -55.6 L 108.2 -55.6 Q 107.9 -55.7 107.6 -55.8 L 107.6 -55.8 L 107.6 -55.8 Q 107 -56.1 106.1 -56.1 L 106.1 -56.1 L 106.1 -56.1 Q 102.2 -56.1 99.9 -49.7 L 99.9 -49.7 L 99.9 -49.7 Q 98.1 -44.7 98.1 -38.6 Z M 149.5 -36.3 L 149.5 -36.3 L 149.5 -36.3 Q 151.1 -35.2 151.1 -32.8 L 151.1 -32.8 L 151.1 -32.8 Q 151.1 -30.4 149.9 -28.9 L 149.9 -28.9 L 149.9 -28.9 Q 148.7 -27.4 146.7 -26.3 L 146.7 -26.3 L 146.7 -26.3 Q 142.6 -24.2 138.2 -24.2 L 138.2 -24.2 L 138.2 -24.2 Q 133.8 -24.2 131.2 -25.2 L 131.2 -25.2 L 131.2 -25.2 Q 128.6 -26.1 126.9 -27.9 L 126.9 -27.9 L 126.9 -27.9 Q 123.5 -31.3 123.5 -37.5 L 123.5 -37.5 L 123.5 -37.5 Q 123.5 -47.2 128.7 -53.1 L 128.7 -53.1 L 128.7 -53.1 Q 134.3 -59.4 144.1 -59.4 L 144.1 -59.4 L 144.1 -59.4 Q 150.2 -59.4 153.2 -56.9 L 153.2 -56.9 L 153.2 -56.9 Q 155.5 -54.9 155.5 -51.8 L 155.5 -51.8 L 155.5 -51.8 Q 155.5 -40.5 136 -40.5 L 136 -40.5 L 136 -40.5 Q 135.8 -38.9 135.8 -37.5 L 135.8 -37.5 L 135.8 -37.5 Q 135.8 -34.5 137.1 -33.4 L 137.1 -33.4 L 137.1 -33.4 Q 138.4 -32.3 140.8 -32.3 L 140.8 -32.3 L 140.8 -32.3 Q 143.2 -32.3 145.8 -33.4 L 145.8 -33.4 L 145.8 -33.4 Q 148.4 -34.5 149.5 -36.3 Z M 136.5 -43.3 L 136.5 -43.3 L 136.5 -43.3 Q 141 -43.3 143.6 -46.1 L 143.6 -46.1 L 143.6 -46.1 Q 146.2 -48.8 146.2 -53.1 L 146.2 -53.1 L 146.2 -53.1 Q 146.2 -54.6 145.7 -55.4 L 145.7 -55.4 L 145.7 -55.4 Q 145.2 -56.2 144.1 -56.2 L 144.1 -56.2 L 144.1 -56.2 Q 143 -56.2 142.1 -55.7 L 142.1 -55.7 L 142.1 -55.7 Q 141.1 -55.3 140.2 -53.9 L 140.2 -53.9 L 140.2 -53.9 Q 137.8 -50.7 136.5 -43.3 Z M 176.8 -48 L 176.8 -48 L 176.8 -48 Q 177.7 -50.3 177.7 -52.4 L 177.7 -52.4 L 177.7 -52.4 Q 177.7 -56.2 174.6 -56.2 L 174.6 -56.2 L 174.6 -56.2 Q 173 -56.2 171.7 -54.7 L 171.7 -54.7 L 171.7 -54.7 Q 170.4 -53.3 170.4 -51.5 L 170.4 -51.5 L 170.4 -51.5 Q 170.4 -50.2 171.4 -49.2 L 171.4 -49.2 L 171.4 -49.2 Q 172.9 -47.8 176.6 -45.5 L 176.6 -45.5 L 176.6 -45.5 Q 180.4 -43.2 181.9 -41.3 L 181.9 -41.3 L 181.9 -41.3 Q 183.3 -39.4 183.3 -36.8 L 183.3 -36.8 L 183.3 -36.8 Q 183.3 -34.2 182.1 -31.8 L 182.1 -31.8 L 182.1 -31.8 Q 180.8 -29.5 178.6 -27.8 L 178.6 -27.8 L 178.6 -27.8 Q 173.8 -24.2 166.1 -24.2 L 166.1 -24.2 L 166.1 -24.2 Q 161.9 -24.2 158.7 -26.4 L 158.7 -26.4 L 158.7 -26.4 Q 155.5 -28.5 155.5 -31 L 155.5 -31 L 155.5 -31 Q 155.5 -33.5 157.4 -35 L 157.4 -35 L 157.4 -35 Q 159.2 -36.4 161.9 -36.4 L 161.9 -36.4 L 161.9 -36.4 Q 164.6 -36.4 166.2 -35.4 L 166.2 -35.4 L 166.2 -35.4 Q 165.4 -33.3 165.4 -31.9 L 165.4 -31.9 L 165.4 -31.9 Q 165.4 -27.7 169 -27.7 L 169 -27.7 L 169 -27.7 Q 170.5 -27.7 171.5 -28.6 L 171.5 -28.6 L 171.5 -28.6 Q 172.6 -29.6 172.6 -31.3 L 172.6 -31.3 L 172.6 -31.3 Q 172.6 -34.5 167 -38 L 167 -38 L 167 -38 Q 162.6 -40.9 161.5 -42.1 L 161.5 -42.1 L 161.5 -42.1 Q 159.8 -44.1 159.8 -46.7 L 159.8 -46.7 L 159.8 -46.7 Q 159.8 -49.2 161 -51.7 L 161 -51.7 L 161 -51.7 Q 162.2 -54.1 164.5 -55.8 L 164.5 -55.8 L 164.5 -55.8 Q 169.2 -59.4 177.3 -59.4 L 177.3 -59.4 L 177.3 -59.4 Q 181.4 -59.4 183.9 -57.8 L 183.9 -57.8 L 183.9 -57.8 Q 186.4 -56.1 186.4 -53.3 L 186.4 -53.3 L 186.4 -53.3 Q 186.4 -50.5 184.7 -48.9 L 184.7 -48.9 L 184.7 -48.9 Q 183 -47.3 179.9 -47.3 L 179.9 -47.3 L 179.9 -47.3 Q 177.8 -47.3 176.8 -48 Z M 227.8 -46.1 L 240.8 -47.3 L 240.8 -47.3 Q 236.2 -37.2 236.2 -25.4 L 236.2 -25.4 L 236.2 -25.4 Q 234.4 -24.2 231.9 -24.2 L 231.9 -24.2 L 231.9 -24.2 Q 229.4 -24.2 227.8 -25.4 L 227.8 -25.4 L 227.8 -25.4 Q 226.2 -26.6 225.9 -27.8 L 225.9 -27.8 L 225.9 -27.8 Q 224.3 -26.1 221.7 -25.2 L 221.7 -25.2 L 221.7 -25.2 Q 219.1 -24.2 216.3 -24.2 L 216.3 -24.2 L 216.3 -24.2 Q 213.6 -24.2 211.2 -25.1 L 211.2 -25.1 L 211.2 -25.1 Q 208.8 -26 206.9 -28 L 206.9 -28 L 206.9 -28 Q 202.8 -32.4 202.8 -40.6 L 202.8 -40.6 L 202.8 -40.6 Q 202.8 -53.4 209.7 -61.1 L 209.7 -61.1 L 209.7 -61.1 Q 216.7 -69 229.2 -69 L 229.2 -69 L 229.2 -69 Q 237.8 -69 240.9 -64.5 L 240.9 -64.5 L 240.9 -64.5 Q 241.9 -63.1 241.9 -61.4 L 241.9 -61.4 L 241.9 -61.4 Q 241.9 -59.7 241.1 -58.3 L 241.1 -58.3 L 241.1 -58.3 Q 240.4 -56.9 239.2 -55.7 L 239.2 -55.7 L 239.2 -55.7 Q 236.5 -53.2 233.1 -53.2 L 233.1 -53.2 L 233.1 -53.2 Q 231.8 -53.2 230.5 -53.6 L 230.5 -53.6 L 230.5 -53.6 Q 230.7 -55.5 230.7 -57.8 L 230.7 -57.8 L 230.7 -57.8 Q 230.7 -60 230.6 -61 L 230.6 -61 L 230.6 -61 Q 230.4 -62 230 -62.9 L 230 -62.9 L 230 -62.9 Q 229.2 -64.6 227.4 -64.6 L 227.4 -64.6 L 227.4 -64.6 Q 225.5 -64.6 223.5 -62.7 L 223.5 -62.7 L 223.5 -62.7 Q 221.5 -60.7 219.9 -57.5 L 219.9 -57.5 L 219.9 -57.5 Q 216.4 -50.3 216.4 -41.7 L 216.4 -41.7 L 216.4 -41.7 Q 216.4 -37.7 217.9 -34.9 L 217.9 -34.9 L 217.9 -34.9 Q 219.6 -31.8 222.5 -31.8 L 222.5 -31.8 L 222.5 -31.8 Q 223.6 -31.8 224.5 -32.4 L 224.5 -32.4 L 224.5 -32.4 Q 225.4 -32.9 225.8 -33.2 L 225.8 -33.2 L 227.8 -46.1 Z M 246.7 -27.4 L 246.7 -27.4 L 246.7 -27.4 Q 245.2 -29.1 244.5 -31.7 L 244.5 -31.7 L 244.5 -31.7 Q 243.8 -34.3 243.8 -38.6 L 243.8 -38.6 L 243.8 -38.6 Q 243.8 -42.9 245.3 -46.8 L 245.3 -46.8 L 245.3 -46.8 Q 246.8 -50.7 249.5 -53.5 L 249.5 -53.5 L 249.5 -53.5 Q 255 -59.4 264.1 -59.4 L 264.1 -59.4 L 264.1 -59.4 Q 267.3 -59.4 269.7 -58.3 L 269.7 -58.3 L 280.6 -59.4 L 275.9 -34.5 L 275.9 -34.5 Q 275.7 -33.7 275.7 -32.3 L 275.7 -32.3 L 275.7 -32.3 Q 275.7 -30.9 276.6 -30 L 276.6 -30 L 276.6 -30 Q 277.4 -29.1 278.7 -29 L 278.7 -29 L 278.7 -29 Q 278.1 -26.8 275.8 -25.5 L 275.8 -25.5 L 275.8 -25.5 Q 273.4 -24.2 270.8 -24.2 L 270.8 -24.2 L 270.8 -24.2 Q 268.2 -24.2 266.4 -25.2 L 266.4 -25.2 L 266.4 -25.2 Q 264.6 -26.2 264.1 -27.9 L 264.1 -27.9 L 264.1 -27.9 Q 263.1 -26.3 260.9 -25.2 L 260.9 -25.2 L 260.9 -25.2 Q 258.8 -24.2 255.8 -24.2 L 255.8 -24.2 L 255.8 -24.2 Q 252.9 -24.2 250.6 -25 L 250.6 -25 L 250.6 -25 Q 248.2 -25.8 246.7 -27.4 Z M 260.2 -53.4 L 260.2 -53.4 L 260.2 -53.4 Q 259.5 -52.3 258.8 -50.3 L 258.8 -50.3 L 258.8 -50.3 Q 258.2 -48.4 257.1 -43.1 L 257.1 -43.1 L 257.1 -43.1 Q 256.1 -37.9 256.1 -34.2 L 256.1 -34.2 L 256.1 -34.2 Q 256.1 -30.5 256.6 -29.4 L 256.6 -29.4 L 256.6 -29.4 Q 257.2 -28.3 258.2 -28.3 L 258.2 -28.3 L 258.2 -28.3 Q 260.3 -28.3 261.8 -30.3 L 261.8 -30.3 L 261.8 -30.3 Q 263.3 -32.2 263.9 -35.7 L 263.9 -35.7 L 267.3 -54.4 L 267.3 -54.4 Q 265.9 -55.6 264.4 -55.6 L 264.4 -55.6 L 264.4 -55.6 Q 262.8 -55.6 261.9 -55.1 L 261.9 -55.1 L 261.9 -55.1 Q 260.9 -54.6 260.2 -53.4 Z M 299.4 -29 L 299.4 -29 L 299.4 -29 Q 297.4 -24.2 291.1 -24.2 L 291.1 -24.2 L 291.1 -24.2 Q 287.9 -24.2 285.8 -26.5 L 285.8 -26.5 L 285.8 -26.5 Q 284.2 -28.3 284.2 -30.4 L 284.2 -30.4 L 284.2 -30.4 Q 284.2 -35.2 286.4 -45.7 L 286.4 -45.7 L 291.1 -70.3 L 304.1 -71.6 L 297.9 -39.2 L 297.9 -39.2 Q 296.8 -34.5 296.8 -32.8 L 296.8 -32.8 L 296.8 -32.8 Q 296.8 -29.2 299.4 -29 Z M 320.1 -29 L 320.1 -29 L 320.1 -29 Q 318.2 -24.2 311.8 -24.2 L 311.8 -24.2 L 311.8 -24.2 Q 308.6 -24.2 306.6 -26.5 L 306.6 -26.5 L 306.6 -26.5 Q 304.9 -28.3 304.9 -30.4 L 304.9 -30.4 L 304.9 -30.4 Q 304.9 -35.2 307.1 -45.7 L 307.1 -45.7 L 311.8 -70.3 L 324.8 -71.6 L 318.6 -39.2 L 318.6 -39.2 Q 317.5 -34.5 317.5 -32.8 L 317.5 -32.8 L 317.5 -32.8 Q 317.5 -29.2 320.1 -29 Z M 351.5 -36.3 L 351.5 -36.3 L 351.5 -36.3 Q 353.1 -35.2 353.1 -32.8 L 353.1 -32.8 L 353.1 -32.8 Q 353.1 -30.4 351.9 -28.9 L 351.9 -28.9 L 351.9 -28.9 Q 350.7 -27.4 348.7 -26.3 L 348.7 -26.3 L 348.7 -26.3 Q 344.6 -24.2 340.2 -24.2 L 340.2 -24.2 L 340.2 -24.2 Q 335.8 -24.2 333.2 -25.2 L 333.2 -25.2 L 333.2 -25.2 Q 330.6 -26.1 328.8 -27.9 L 328.8 -27.9 L 328.8 -27.9 Q 325.4 -31.3 325.4 -37.5 L 325.4 -37.5 L 325.4 -37.5 Q 325.4 -47.2 330.7 -53.1 L 330.7 -53.1 L 330.7 -53.1 Q 336.3 -59.4 346.1 -59.4 L 346.1 -59.4 L 346.1 -59.4 Q 352.2 -59.4 355.2 -56.9 L 355.2 -56.9 L 355.2 -56.9 Q 357.4 -54.9 357.4 -51.8 L 357.4 -51.8 L 357.4 -51.8 Q 357.4 -40.5 338 -40.5 L 338 -40.5 L 338 -40.5 Q 337.7 -38.9 337.7 -37.5 L 337.7 -37.5 L 337.7 -37.5 Q 337.7 -34.5 339 -33.4 L 339 -33.4 L 339 -33.4 Q 340.4 -32.3 342.8 -32.3 L 342.8 -32.3 L 342.8 -32.3 Q 345.2 -32.3 347.8 -33.4 L 347.8 -33.4 L 347.8 -33.4 Q 350.4 -34.5 351.5 -36.3 Z M 338.4 -43.3 L 338.4 -43.3 L 338.4 -43.3 Q 343 -43.3 345.6 -46.1 L 345.6 -46.1 L 345.6 -46.1 Q 348.2 -48.8 348.2 -53.1 L 348.2 -53.1 L 348.2 -53.1 Q 348.2 -54.6 347.7 -55.4 L 347.7 -55.4 L 347.7 -55.4 Q 347.1 -56.2 346.1 -56.2 L 346.1 -56.2 L 346.1 -56.2 Q 345 -56.2 344 -55.7 L 344 -55.7 L 344 -55.7 Q 343.1 -55.3 342.2 -53.9 L 342.2 -53.9 L 342.2 -53.9 Q 339.8 -50.7 338.4 -43.3 Z M 379.7 -43.5 L 379.7 -43.5 L 379.7 -43.5 Q 382 -47.6 382 -51.7 L 382 -51.7 L 382 -51.7 Q 382 -54.5 380 -54.5 L 380 -54.5 L 380 -54.5 Q 378.4 -54.5 376.8 -51.9 L 376.8 -51.9 L 376.8 -51.9 Q 375.2 -49.2 374.7 -45.9 L 374.7 -45.9 L 371.3 -25.5 L 358.1 -24.2 L 364.6 -58.1 L 375.2 -59.4 L 374 -53 L 374 -53 Q 377.2 -59.4 384.2 -59.4 L 384.2 -59.4 L 384.2 -59.4 Q 387.9 -59.4 389.9 -57.5 L 389.9 -57.5 L 389.9 -57.5 Q 391.9 -55.6 391.9 -51.6 L 391.9 -51.6 L 391.9 -51.6 Q 391.9 -47.7 389.4 -45.2 L 389.4 -45.2 L 389.4 -45.2 Q 386.8 -42.7 382.3 -42.7 L 382.3 -42.7 L 382.3 -42.7 Q 380.4 -42.7 379.7 -43.5 Z M 413.3 -32.7 L 413.3 -32.7 L 413.3 -32.7 Q 410 -29.3 403.9 -29.3 L 403.9 -29.3 L 403.9 -29.3 Q 396.3 -29.3 394.7 -34.8 L 394.7 -34.8 L 394.7 -34.8 Q 394.2 -36.5 394.2 -38.4 L 394.2 -38.4 L 394.2 -38.4 Q 394.2 -40.2 394.6 -42.1 L 394.6 -42.1 L 397.6 -58.1 L 410.6 -59.4 L 407 -40.8 L 407 -40.8 Q 406.9 -40 406.7 -39.1 L 406.7 -39.1 L 406.7 -39.1 Q 406.5 -38.2 406.5 -37.2 L 406.5 -37.2 L 406.5 -37.2 Q 406.5 -36.3 406.9 -35.7 L 406.9 -35.7 L 406.9 -35.7 Q 407.2 -35.1 407.6 -34.7 L 407.6 -34.7 L 407.6 -34.7 Q 408.4 -34.2 409.8 -34.2 L 409.8 -34.2 L 409.8 -34.2 Q 411.1 -34.2 412.3 -35.9 L 412.3 -35.9 L 412.3 -35.9 Q 413.5 -37.5 414.1 -40.4 L 414.1 -40.4 L 417.6 -58.1 L 430.2 -59.4 L 425.4 -34.3 L 425.4 -34.3 Q 423 -22 418.2 -17.1 L 418.2 -17.1 L 418.2 -17.1 Q 415.7 -14.6 412.5 -13.6 L 412.5 -13.6 L 412.5 -13.6 Q 409.2 -12.6 405.1 -12.6 L 405.1 -12.6 L 405.1 -12.6 Q 398.3 -12.6 394.5 -14.8 L 394.5 -14.8 L 394.5 -14.8 Q 390.7 -16.9 390.7 -20.4 L 390.7 -20.4 L 390.7 -20.4 Q 390.7 -23 392.6 -24.5 L 392.6 -24.5 L 392.6 -24.5 Q 394.6 -26 397.7 -26 L 397.7 -26 L 397.7 -26 Q 400.4 -26 402.4 -24.9 L 402.4 -24.9 L 402.4 -24.9 Q 403.7 -24.2 404.2 -23.3 L 404.2 -23.3 L 404.2 -23.3 Q 402.8 -22 402.8 -19.9 L 402.8 -19.9 L 402.8 -19.9 Q 402.8 -17.1 405.3 -17.1 L 405.3 -17.1 L 405.3 -17.1 Q 409.5 -17.1 412 -26.8 L 412 -26.8 L 412 -26.8 Q 412.7 -29.7 413.3 -32.7 Z" fill="#caf0e6"></path></g></g><style>text {
  font-size: 64px;
  font-family: Arial Black;
  dominant-baseline: central;
  text-anchor: middle;
}</style></svg>